<svg width="128" height="128" viewBox="0 0 128 128" fill="none" xmlns="http://www.w3.org/2000/svg">
<path fill-rule="evenodd" clip-rule="evenodd" d="M38.6782 22.1779L49.2831 28.3588C51.2182 27.5421 53.2348 26.8816 55.3174 26.3931L60.2744 15.1419C61.504 15.0479 62.7464 15 64 15C65.2536 15 66.496 15.0479 67.7256 15.1419L72.6825 26.393C74.7651 26.8816 76.7818 27.5421 78.7169 28.3588L89.3218 22.1779C91.4438 23.4896 93.4572 24.9612 95.3452 26.576L92.762 38.6097C94.1406 40.2117 95.3885 41.9302 96.489 43.7483L108.702 45.0029C109.642 47.2876 110.413 49.66 111 52.1047L101.853 60.3233C101.939 61.3708 101.983 62.4302 101.983 63.5C101.983 64.5698 101.939 65.6292 101.853 66.6767L111 74.8953C110.413 77.34 109.642 79.7124 108.702 81.9971L96.489 83.2517C95.3885 85.0698 94.1406 86.7883 92.762 88.3903L95.3452 100.424C93.4572 102.039 91.4438 103.51 89.3218 104.822L78.7169 98.6412C76.7818 99.4579 74.7651 100.118 72.6825 100.607L67.7256 111.858C66.496 111.952 65.2536 112 64 112C62.7464 112 61.504 111.952 60.2744 111.858L55.3174 100.607C53.2348 100.118 51.2182 99.4579 49.2831 98.6412L38.6782 104.822C36.5561 103.51 34.5428 102.039 32.6548 100.424L35.238 88.3903C33.8594 86.7882 32.6115 85.0698 31.511 83.2517L19.2983 81.9971C18.358 79.7124 17.5867 77.3399 17 74.8953L26.1472 66.6767C26.0611 65.6292 26.0171 64.5698 26.0171 63.5C26.0171 62.4302 26.0611 61.3708 26.1472 60.3233L17 52.1047C17.5867 49.6601 18.358 47.2876 19.2983 45.0029L31.511 43.7483C32.6115 41.9302 33.8594 40.2118 35.238 38.6097L32.6548 26.576C34.5428 24.9612 36.5561 23.4896 38.6782 22.1779ZM64.0008 89.1357C78.3417 89.1357 89.9673 77.4721 89.9673 63.0843C89.9673 48.6965 78.3417 37.0328 64.0008 37.0328C49.6599 37.0328 38.0344 48.6965 38.0344 63.0843C38.0344 77.4721 49.6599 89.1357 64.0008 89.1357Z" fill="#1D1D1D"/>
<path d="M37.5025 35.3582C38.7185 33.4132 41.2758 32.8254 43.2144 34.0453L75.1957 54.1704C77.1343 55.3903 77.7202 57.956 76.5042 59.901C75.2882 61.846 72.7309 62.4338 70.7922 61.2138L38.811 41.0888C36.8724 39.8688 36.2865 37.3031 37.5025 35.3582Z" fill="#1D1D1D"/>
<path d="M51.5216 65.7746C52.7376 63.8296 55.2949 63.2418 57.2336 64.4618L89.2148 84.5868C91.1535 85.8067 91.7393 88.3724 90.5233 90.3174C89.3074 92.2624 86.75 92.8502 84.8114 91.6302L52.8302 71.5052C50.8915 70.2853 50.3057 67.7196 51.5216 65.7746Z" fill="#1D1D1D"/>
</svg>
