<svg width="406" height="100" viewBox="0 0 406 100" fill="none" xmlns="http://www.w3.org/2000/svg">
<g clip-path="url(#clip0_138_346)">
<path d="M140.432 48.936C143.408 49.608 145.76 51.096 147.488 53.4C149.264 55.656 150.152 58.248 150.152 61.176C150.152 65.496 148.664 68.88 145.688 71.328C142.712 73.776 138.536 75 133.16 75H108.032V24.24H132.368C137.552 24.24 141.608 25.392 144.536 27.696C147.512 30 149 33.24 149 37.416C149 40.392 148.208 42.888 146.624 44.904C145.088 46.872 143.024 48.216 140.432 48.936ZM122.144 44.4H129.272C132.824 44.4 134.6 42.936 134.6 40.008C134.6 36.984 132.824 35.472 129.272 35.472H122.144V44.4ZM130.352 63.624C133.904 63.624 135.68 62.136 135.68 59.16C135.68 57.624 135.2 56.448 134.24 55.632C133.328 54.816 132.008 54.408 130.28 54.408H122.144V63.624H130.352ZM187.441 75L177.361 56.28H175.849V75H161.737V24.24H183.985C188.065 24.24 191.521 24.96 194.353 26.4C197.185 27.792 199.321 29.736 200.761 32.232C202.201 34.68 202.921 37.44 202.921 40.512C202.921 43.968 201.961 47.016 200.041 49.656C198.169 52.248 195.409 54.096 191.761 55.2L203.209 75H187.441ZM175.849 46.632H182.833C184.753 46.632 186.193 46.176 187.153 45.264C188.113 44.352 188.593 43.032 188.593 41.304C188.593 39.672 188.089 38.4 187.081 37.488C186.121 36.528 184.705 36.048 182.833 36.048H175.849V46.632ZM228.85 35.544V43.824H245.05V54.552H228.85V63.696H247.21V75H214.738V24.24H247.21V35.544H228.85ZM291.696 66.72H273.696L270.96 75H256.128L274.632 24.24H290.904L309.336 75H294.432L291.696 66.72ZM288.168 55.92L282.696 39.504L277.296 55.92H288.168ZM378.591 24.24V75H364.479V46.992L354.903 75H343.095L333.447 46.776V75H319.335V24.24H336.399L349.143 57.216L361.599 24.24H378.591Z" fill="black"/>
<path fill-rule="evenodd" clip-rule="evenodd" d="M37.2209 21.0319L44.6668 25.365C46.0255 24.7924 47.4415 24.3294 48.9037 23.9869L52.3842 16.0995C53.2475 16.0336 54.1198 16 55 16C55.8802 16 56.7525 16.0336 57.6158 16.0995L61.0962 23.9869C62.5585 24.3294 63.9745 24.7924 65.3331 25.365L72.7791 21.0319C74.2691 21.9515 75.6827 22.9831 77.0083 24.1151L75.1946 32.5511C76.1626 33.6742 77.0387 34.8789 77.8114 36.1535L86.3863 37.033C87.0465 38.6346 87.588 40.2978 88 42.0115L81.5775 47.773C81.638 48.5073 81.6688 49.2501 81.6688 50C81.6688 50.7499 81.638 51.4927 81.5775 52.227L88 57.9885C87.588 59.7022 87.0465 61.3654 86.3863 62.967L77.8114 63.8465C77.0387 65.1211 76.1626 66.3258 75.1946 67.4489L77.0083 75.8849C75.6827 77.0169 74.2691 78.0485 72.7791 78.9681L65.3331 74.635C63.9745 75.2076 62.5585 75.6706 61.0962 76.0131L57.6158 83.9005C56.7525 83.9664 55.8802 84 55 84C54.1198 84 53.2475 83.9664 52.3842 83.9005L48.9037 76.0131C47.4415 75.6706 46.0255 75.2076 44.6668 74.635L37.2209 78.9681C35.7309 78.0485 34.3173 77.0169 32.9917 75.8848L34.8054 67.4488C33.8374 66.3258 32.9613 65.1211 32.1886 63.8465L23.6137 62.967C22.9535 61.3654 22.412 59.7022 22 57.9885L28.4225 52.2269C28.362 51.4926 28.3312 50.7499 28.3312 50C28.3312 49.2501 28.362 48.5074 28.4225 47.7731L22 42.0115C22.412 40.2978 22.9535 38.6346 23.6137 37.033L32.1886 36.1535C32.9613 34.8789 33.8374 33.6742 34.8054 32.5512L32.9917 24.1152C34.3173 22.9831 35.7309 21.9515 37.2209 21.0319ZM54.9966 66.3686C64.0347 66.3686 71.3616 59.0292 71.3616 49.9757C71.3616 40.9222 64.0347 33.5829 54.9966 33.5829C45.9585 33.5829 38.6316 40.9222 38.6316 49.9757C38.6316 59.0292 45.9585 66.3686 54.9966 66.3686Z" fill="black"/>
<path d="M36.3954 30.2717C37.2491 28.9082 39.0447 28.4962 40.4059 29.3514L62.8608 43.4596C64.222 44.3149 64.6333 46.1135 63.7795 47.477C62.9258 48.8405 61.1302 49.2525 59.769 48.3973L37.3141 34.289C35.9529 33.4338 35.5416 31.6352 36.3954 30.2717Z" fill="black"/>
<path d="M46.2386 51.5946C47.0924 50.2311 48.8879 49.819 50.2491 50.6742L72.704 64.7825C74.0652 65.6377 74.4765 67.4363 73.6228 68.7998C72.769 70.1633 70.9734 70.5754 69.6122 69.7202L47.1573 55.6119C45.7962 54.7567 45.3848 52.9581 46.2386 51.5946Z" fill="black"/>
</g>
<defs>
<clipPath id="clip0_138_346">
<rect width="406" height="100" fill="white"/>
</clipPath>
</defs>
</svg>
